<?xml version="1.0" encoding="utf-8"?>
<!-- Generator: Adobe Illustrator 25.4.0, SVG Export Plug-In . SVG Version: 6.00 Build 0)  -->
<svg version="1.1" id="Layer_1" xmlns="http://www.w3.org/2000/svg" xmlns:xlink="http://www.w3.org/1999/xlink" x="0px" y="0px"
	 viewBox="0 0 220 70" style="enable-background:new 0 0 220 70;" xml:space="preserve">
<style type="text/css">
	.st0{fill:#A1A1A1;}
	.st1{fill:#E0E0E0;stroke:#242424;stroke-width:0.1;stroke-miterlimit:10;}
	.st2{opacity:0.8;fill:#E1E1E1;stroke:#242424;stroke-width:0.1;stroke-miterlimit:10;enable-background:new    ;}
	.st3{fill:#C0C0C0;stroke:#242424;stroke-width:0.1;stroke-miterlimit:10;}
	.st4{fill:#A1A1A1;stroke:#242424;stroke-width:0.1;stroke-miterlimit:10;}
</style>
<g>
	<path class="st0" d="M74.4,37.6c0,0.3-0.3,0.6-0.6,0.6H61.5c0.3,3,2.6,5.8,5.8,5.8c2.2,0,3.8-0.8,5.1-2.6c0.2-0.2,0.4-0.4,0.8-0.3
		c0.2,0.1,0.3,0.3,0.3,0.4c0,0.2,0,0.3-0.1,0.4c-1.2,2.2-3.7,3.2-6.1,3.2c-4.1,0-7.1-3.7-7.1-7.7s2.9-7.7,7.1-7.7
		C71.4,30,74.4,33.6,74.4,37.6 M73.2,37c-0.3-3-2.6-5.8-5.8-5.8S61.8,34,61.5,37H73.2z M89.3,30.3c0.4,0,0.6,0.3,0.6,0.6
		c0,0.4-0.3,0.6-0.6,0.6H86v12.9c0,0.3-0.3,0.6-0.6,0.6c-0.4,0-0.6-0.3-0.6-0.6V31.5h-3.2c-0.4,0-0.6-0.3-0.6-0.6
		c0-0.3,0.3-0.6,0.6-0.6h3.2v-4.7c0-0.3,0.2-0.6,0.5-0.6c0.4-0.1,0.7,0.2,0.7,0.6v4.7H89.3L89.3,30.3z M109.4,36.5v7.8
		c0,0.4-0.3,0.6-0.6,0.6c-0.4,0-0.6-0.3-0.6-0.6v-7.8c0-2.6-1.5-5.3-4.4-5.3c-3.8,0-5.4,3.3-5.2,6.7c0,0.1,0,0.5,0,0.5v5.9
		c0,0.3-0.2,0.6-0.5,0.6c-0.4,0.1-0.7-0.2-0.7-0.6V18.6c0-0.3,0.3-0.6,0.6-0.6c0.4,0,0.6,0.3,0.6,0.6v14.6c1.1-1.9,2.9-3.2,5.1-3.2
		C107.3,30,109.4,33.2,109.4,36.5 M131.5,37.6c0,0.3-0.3,0.6-0.6,0.6h-12.3c0.3,3,2.6,5.8,5.8,5.8c2.2,0,3.8-0.8,5.1-2.6
		c0.2-0.2,0.4-0.4,0.8-0.3c0.2,0.1,0.3,0.3,0.3,0.4c0,0.2,0,0.3-0.1,0.4c-1.2,2.2-3.7,3.2-6.1,3.2c-4.1,0-7.1-3.7-7.1-7.7
		s2.9-7.7,7.1-7.7C128.5,30,131.5,33.6,131.5,37.6 M130.1,37c-0.3-3-2.6-5.8-5.8-5.8c-3.2,0-5.5,2.8-5.8,5.8H130.1z M146.5,30.8
		c0,0.4-0.2,0.6-0.6,0.7c-3.6,0.5-5.2,3.5-5.2,6.9v5.9c0,0.3-0.2,0.6-0.5,0.6c-0.4,0.1-0.7-0.2-0.7-0.6V30.9c0-0.3,0.2-0.6,0.5-0.6
		c0.4-0.1,0.7,0.2,0.7,0.6v2.7c1-1.7,3-3.3,5.1-3.3C146.2,30.3,146.5,30.5,146.5,30.8 M166.8,37.6c0,0.3-0.3,0.6-0.6,0.6h-12.3
		c0.3,3,2.6,5.8,5.8,5.8c2.2,0,3.8-0.8,5.1-2.6c0.2-0.2,0.4-0.4,0.8-0.3c0.2,0.1,0.3,0.3,0.3,0.4c0,0.2,0,0.3-0.1,0.4
		c-1.2,2.2-3.7,3.2-6.1,3.2c-4.1,0-7.1-3.7-7.1-7.7s2.9-7.7,7.1-7.7C163.8,30,166.8,33.6,166.8,37.6 M165.5,37
		c-0.3-3-2.6-5.8-5.8-5.8c-3.2,0-5.5,2.8-5.8,5.8H165.5z M186.6,31v13.4c0,0.4-0.3,0.6-0.6,0.6c-0.4,0-0.6-0.3-0.6-0.6v-2.6
		c-1,2-2.8,3.5-5.1,3.5c-3.7,0-5.7-3.2-5.7-6.5V31c0-0.3,0.3-0.6,0.6-0.6c0.4,0,0.6,0.3,0.6,0.6v7.9c0,2.6,1.5,5.3,4.4,5.3
		c4.1,0,5.1-3.9,5.1-8.1v-5c0-0.4,0.4-0.7,0.8-0.6C186.5,30.5,186.6,30.7,186.6,31 M217.8,36.5v7.9c0,0.4-0.3,0.6-0.6,0.6
		c-0.4,0-0.6-0.3-0.6-0.6v-7.9c0-2.6-1.5-5.2-4.4-5.2c-3.7,0-5.1,4-5.1,7v6.1c0,0.4-0.3,0.6-0.6,0.6c-0.4,0-0.6-0.3-0.6-0.6v-7.9
		c0-2.6-1.5-5.2-4.4-5.2c-3.7,0-5.3,2.9-5.1,6.9c0,0.1,0,0.3,0,0.3v5.9c0,0.3-0.2,0.6-0.5,0.6c-0.4,0.1-0.7-0.2-0.7-0.6V30.9
		c0-0.3,0.2-0.6,0.5-0.6c0.4-0.1,0.7,0.2,0.7,0.6v2.2c1.1-1.9,2.9-3.1,5.1-3.1c2.5,0,4.4,1.6,5.2,3.9c1-2.3,3-3.9,5.5-3.9
		C215.6,30,217.8,33.1,217.8,36.5"/>
</g>
<g>
	<path class="st1" d="M24.6,26.5v-25l-20.5,34l20.5,12.2V26.5z"/>
	<path class="st2" d="M24.6,47.8l20.7-12.2l-20.7-34v24.8C24.6,26.4,24.6,47.8,24.6,47.8z"/>
	<polygon class="st3" points="24.6,26.5 24.6,47.8 44.7,35.5 	"/>
	<path class="st1" d="M24.6,51.5L4.1,39.7l20.5,28.8V51.5z"/>
	<path class="st3" d="M44.7,39.7L24.6,51.5v16.9L44.7,39.7z"/>
	<polygon class="st4" points="4.1,35.5 24.6,47.8 24.6,26.5 	"/>
</g>
</svg>
