<?xml version="1.0" encoding="utf-8"?>
<!-- Generator: Adobe Illustrator 25.2.3, SVG Export Plug-In . SVG Version: 6.00 Build 0)  -->
<svg version="1.1" id="Layer_1" xmlns="http://www.w3.org/2000/svg" xmlns:xlink="http://www.w3.org/1999/xlink" x="0px" y="0px"
	 viewBox="0 0 48 48" style="enable-background:new 0 0 48 48;" xml:space="preserve">
<style type="text/css">
	.st0{opacity:0.5;fill:#999999;}
	.st1{fill:#999999;}
</style>
<g>
	<path class="st0" d="M0,5.4h37.2v37.2H0V5.4z"/>
	<path class="st1" d="M9.8,36.5l2.8-1.7c0.5,1,1.1,1.8,2.2,1.8s1.9-0.4,1.9-2.2V22.5h3.5v11.9c0,3.6-2.1,5.3-5.2,5.3
		C12.2,39.7,10.6,38.3,9.8,36.5 M22.1,36.1l2.8-1.6c0.8,1.2,1.7,2.1,3.4,2.1c1.5,0,2.4-0.7,2.4-1.7c0-1.2-0.9-1.6-2.5-2.3l-0.9-0.4
		c-2.5-1.1-4.2-2.4-4.2-5.3c0-2.6,2-4.6,5.1-4.6c2.2,0,3.8,0.8,5,2.8l-2.6,1.7c-0.6-1.1-1.2-1.5-2.2-1.5s-1.7,0.6-1.7,1.5
		c0,1,0.6,1.5,2.1,2.1l0.9,0.4c3,1.3,4.6,2.6,4.6,5.5c0,3.2-2.5,4.9-5.8,4.9C25.3,39.7,23.2,38.2,22.1,36.1"/>
</g>
</svg>
