<?xml version="1.0" encoding="utf-8"?>
<!-- Generator: Adobe Illustrator 25.2.3, SVG Export Plug-In . SVG Version: 6.00 Build 0)  -->
<svg version="1.1" id="Layer_1" xmlns="http://www.w3.org/2000/svg" xmlns:xlink="http://www.w3.org/1999/xlink" x="0px" y="0px"
	 viewBox="0 0 150 48" style="enable-background:new 0 0 150 48;" xml:space="preserve">
<style type="text/css">
	.st0{opacity:0.8;fill:#999999;}
	.st1{fill:#999999;}
	.st2{fill:#CCCCCC;}
</style>
<g>
	<path class="st0" d="M15.8,20.3C13.9,11.9,10,9.7,9,8.2C8.6,7.5,8.2,6.8,7.9,6c0,0.8-0.1,1.2-0.8,1.8c-1.3,1.1-6.7,5.5-7.1,15
		c-0.4,8.9,6.5,14.3,7.4,14.9c0.7,0.4,1.6,0,2-0.3C12.7,35.1,17.3,28.9,15.8,20.3"/>
	<path class="st1" d="M8.1,33c-0.2,2.2-0.3,3.5-0.8,4.7c0,0,0.3,2.1,0.5,4.3h0.7c0.2-1.6,0.4-3.1,0.8-4.6C8.5,36.9,8.1,34.9,8.1,33z
		"/>
	<path class="st2" d="M9.4,37.4L9.4,37.4C8.5,37,8.2,34.9,8.1,33c0.2-3.1,0.3-6.3,0.2-9.4c0-1.7,0-15.3-0.4-17.3
		c0.3,0.7,0.6,1.3,1,2c1,1.6,4.9,3.8,6.8,12.1C17.3,28.9,12.7,35.1,9.4,37.4z"/>
	<path class="st1" d="M134.1,34.3c-1.1,0-2.1-0.9-2.1-2.1c0-1.1,0.9-2.1,2.1-2.1c1.1,0,2,0.9,2.1,2
		C136.2,33.4,135.3,34.3,134.1,34.3L134.1,34.3 M134.1,30.4c-1,0-1.9,0.8-1.9,1.8c0,1,0.8,1.9,1.8,1.9s1.9-0.8,1.9-1.8l0,0
		C135.9,31.3,135.1,30.5,134.1,30.4L134.1,30.4 M134.5,33.6l-0.5-1.1h-0.4v1.1h-0.3V31h0.8c0.6,0,0.8,0.3,0.8,0.7s-0.2,0.6-0.5,0.7
		l0.5,1.2L134.5,33.6z M133.6,32.2h0.4c0.4,0,0.5-0.1,0.5-0.4c0-0.3-0.1-0.4-0.5-0.4h-0.4V32.2z"/>
	<path class="st1" d="M103.5,32.5c0.5,0.4,1.7,0.6,2.7,0.6c1.3,0,2.5-0.2,3.7-1.3c1.3-1.1,2.1-2.8,2.1-5.6c0-2.7-1-4.8-3.1-6
		c-1.2-0.7-2.7-1-4.4-1c-0.5,0-1,0-1.3,0.1c-0.1,0.1-0.2,0.2-0.2,0.4c0,0.4,0,4,0,6.2s0,5.2,0,5.6C103,31.7,103.1,32.2,103.5,32.5
		 M98.2,17.9c0.4,0,2.2,0.1,3,0.1c1.5,0,2.5-0.1,5.3-0.1c2.3,0,4.3,0.6,5.7,1.8c1.7,1.5,2.6,3.5,2.6,6c0,3.6-1.6,5.6-3.2,6.7
		c-1.6,1.2-3.7,1.9-6.7,1.9c-1.6,0-4.3,0-6.6-0.1l0,0c-0.1-0.2,0.2-1,0.4-1c0.6-0.1,0.8-0.1,1.1-0.2c0.5-0.2,0.6-0.4,0.6-1.3
		c0.1-1.6,0-3.6,0-5.8c0-1.6,0-4.6,0-5.6c-0.1-0.8-0.4-1-1.1-1.2c-0.5-0.1-1-0.2-1.5-0.2C97.7,18.8,98.1,18.1,98.2,17.9"/>
	<path class="st1" d="M121.3,19.2c-0.1,0-0.2,0.3-0.2,0.4c0,0.9,0,3.4,0,5.1c0,0,0,0.1,0.1,0.1c0.4,0,1.2,0,1.9,0
		c1,0,1.6-0.1,1.9-0.3c0.9-0.4,1.3-1.3,1.3-2.3c0-2.3-1.6-3.1-4-3.1C122,19.2,121.6,19.2,121.3,19.2 M127.3,29.7
		c0-2.3-1.7-3.6-4.8-3.6c-0.1,0-1.1,0-1.3,0c-0.1,0-0.2,0.1-0.2,0.1c0,1.7,0,4.3,0,5.4c0,0.4,0.4,1.1,0.8,1.3s1.4,0.3,2,0.3
		C125.7,33.1,127.3,32.1,127.3,29.7 M116.5,18c0.2,0,0.9,0.1,2.7,0.1c1.7,0,3.1,0,4.7,0c2,0,4.9,0.7,4.9,3.8c0,1.5-1.1,2.7-2.4,3.3
		c-0.1,0-0.1,0.1,0,0.1c2,0.5,3.7,1.7,3.7,4c0,2.2-1.4,3.6-3.4,4.5c-1.3,0.5-2.8,0.7-4.3,0.7c-1.2,0-4.4-0.1-6.2-0.1
		c-0.2-0.1,0.2-0.9,0.3-1c0.4,0,0.8-0.1,1.2-0.2c0.6-0.1,0.7-0.4,0.8-1.3c0-0.8,0-3.7,0-5.8c0-2.8,0-4.7,0-5.7c0-0.7-0.3-1-0.8-1.1
		c-0.4-0.1-1.1-0.1-1.6-0.2C116,18.9,116.4,18.1,116.5,18"/>
	<path class="st1" d="M21.6,34.3c-0.1-0.2-0.1-0.4-0.1-0.5s0-0.2,0.1-0.4c0.4,0,0.7-0.1,1-0.2c0.4-0.1,0.6-0.4,0.7-1
		c0.1-1.4,0.1-4,0-5.9l0,0c0-0.2,0-0.5-0.3-0.7c-0.4-0.3-0.9-0.5-1.4-0.6c-0.2,0-0.4-0.2-0.4-0.3s0.1-0.3,0.4-0.4
		c0.8-0.1,2.8-0.5,3.6-0.9c0.1,0.1,0.1,0.2,0.1,0.4c0,0.1,0,0.2,0,0.3c0,0.3,0,0.5,0,0.9c0,0.1,0.1,0.2,0.2,0.2h0.1
		c1.5-1.2,2.8-1.6,3.6-1.6c1.1,0,2,0.5,2.7,1.7l0.1,0.1c0,0,0.1,0,0.1-0.1c1.4-1,2.7-1.7,3.6-1.7c2.2,0,3.5,1.6,3.5,4.3
		c0,0.8,0,1.8,0,2.7c0,0.8,0,1.6,0,2.1c0,0.1,0.2,0.5,0.4,0.5c0.3,0.1,0.8,0.2,1.3,0.3l0,0c0,0.1,0,0.8-0.1,0.9c-0.1,0-0.4,0-0.6,0
		c-0.4,0-1.1,0-1.8,0c-1.4,0-2.2,0-2.9,0.1c0-0.2-0.1-0.8,0-0.9c0.3,0,0.6-0.1,0.9-0.2c0.4-0.1,0.6-0.4,0.6-0.9c0-0.4,0.1-4.2,0-5.1
		s-0.9-2-2.4-2c-0.6,0-1.5,0.2-2.4,0.9c0,0-0.1,0.1-0.1,0.2l0,0c0.1,0.5,0.1,1.1,0.1,1.9c0,0.5,0,1,0,1.5c0,1,0,2,0,2.8
		c0,0.5,0.3,0.6,0.5,0.7c0.1,0,0.2,0,0.4,0.1c0.2,0,0.4,0.1,0.8,0.1c0,0.2,0,0.4,0,0.7c0,0.1,0,0.2-0.1,0.2c-0.8,0-1.6,0-2.8,0
		c-0.4,0-0.9,0-1.5,0c-0.4,0-0.8,0-1,0c0-0.1-0.1-0.3-0.1-0.4c0-0.1,0-0.3,0.1-0.4h0.3c0.3,0,0.5-0.1,0.8-0.1
		c0.4-0.1,0.5-0.3,0.6-0.9c0.1-1.2,0.1-4.5,0-5.4c-0.3-1.3-1-2-2.3-2c-0.7,0-1.6,0.4-2.4,0.9c-0.1,0.1-0.2,0.3-0.2,0.5
		c0,0.4,0,0.9,0,1.4c0,1.7,0,3.8,0,4.7c0,0.3,0.1,0.6,0.6,0.7c0.1,0,0.3,0,0.5,0.1c0.1,0,0.3,0,0.4,0.1c0,0.3,0,0.6-0.1,0.9
		c-0.2,0-0.5,0-0.9,0c-0.5,0-1.1,0-1.8,0c-0.8,0-1.4,0-1.8,0C22.2,34.3,21.9,34.3,21.6,34.3"/>
	<path class="st1" d="M48.2,24.5c-0.4,0-0.9,0.1-1.3,0.4c-0.9,0.5-1.4,1.7-1.4,3.3c0,3.1,1.5,5.2,3.7,5.2c0.6,0,1.2-0.2,1.6-0.6
		c0.7-0.5,1-1.7,1-3.2C51.9,26.6,50.4,24.5,48.2,24.5 M48.6,34.6c-4,0-5.4-2.9-5.4-5.6c0-1.9,0.8-3.4,2.3-4.4c1.1-0.7,2.3-1,3.6-1.1
		c3,0,5.2,2.2,5.2,5.3c0,2.1-0.9,3.8-2.4,4.9C51.1,34.1,49.7,34.6,48.6,34.6"/>
	<path class="st1" d="M88.7,24.5c-0.4,0-0.9,0.1-1.3,0.4c-0.9,0.5-1.4,1.7-1.4,3.3c0,3.1,1.5,5.2,3.7,5.2c0.6,0,1.2-0.2,1.6-0.6
		c0.7-0.5,1-1.7,1-3.2C92.4,26.6,90.9,24.5,88.7,24.5 M89.1,34.6c-4,0-5.4-2.9-5.4-5.6c0-1.9,0.8-3.4,2.3-4.4c1.1-0.7,2.3-1,3.6-1.1
		c3,0,5.2,2.2,5.2,5.3c0,2.1-0.9,3.8-2.4,4.9C91.5,34.1,90.2,34.6,89.1,34.6"/>
	<path class="st1" d="M75.3,24.4c-1.2,0-2,0.9-2,2.5c0,1.5,0.7,3.3,2.6,3.3c0.3,0,0.9-0.1,1.2-0.4c0.4-0.4,0.8-1.3,0.8-2.2
		C77.8,25.6,76.9,24.4,75.3,24.4 M75.1,34.8c-0.4,0-0.7,0.1-1,0.3c-1,0.6-1.4,1.3-1.4,2s0.3,1.2,0.8,1.7c0.7,0.6,1.6,0.9,2.8,0.9
		c2.4,0,3.5-1.3,3.5-2.6c0-0.9-0.4-1.5-1.3-1.8C77.7,34.9,76.6,34.8,75.1,34.8 M75.3,40.9c-1.4,0-2.5-0.3-3.3-1
		c-0.9-0.7-1.3-1.6-1.3-2.3c0-0.4,0.2-0.9,0.4-1.2c0.3-0.3,0.8-0.8,2.2-1.7c0,0,0.1,0,0.1-0.1s0-0.1-0.1-0.1
		c-1.1-0.4-1.4-1.1-1.5-1.5l0,0c0-0.1,0-0.3,0.1-0.4c0.1-0.1,0.4-0.3,0.7-0.4c0.4-0.2,0.7-0.4,1.1-0.7c0-0.1,0-0.2,0-0.2l0,0
		c-1.6-0.5-2.4-1.8-2.4-3.6c0-1.2,0.5-2.2,1.5-2.9c0.7-0.5,2.3-1.1,3.4-1.1l0,0c1.1,0,1.7,0.3,2.6,0.6c0.5,0.2,1,0.3,1.5,0.2
		c0.9,0,1.3-0.3,1.6-0.6c0,0.1,0.1,0.3,0.1,0.4c0,0.4-0.1,0.8-0.3,1.1c-0.2,0.3-0.6,0.4-1,0.4h-0.1c-0.2,0-0.4,0-0.6-0.1h-0.1
		c0,0,0,0.1,0,0.2l0,0c0.1,0.3,0.1,0.7,0.1,1c0,1.9-0.8,2.7-1.6,3.4c-0.8,0.6-1.8,0.9-2.7,1l0,0c0,0-0.1,0-0.3,0c-0.1,0-0.3,0-0.3,0
		l0,0c-0.2,0-0.6,0.3-0.6,0.7s0.2,0.8,1.2,0.9h0.6c1.3,0.1,3,0.2,3.8,0.4c1.1,0.4,1.8,1.4,1.8,2.5c0,1.7-1.2,3.4-3.3,4.4
		C77.4,40.6,76.3,40.8,75.3,40.9"/>
	<path class="st1" d="M69.2,33.4c-0.6-0.1-1-0.1-1.5-0.4c-0.1-0.1-0.2-0.2-0.2-0.4c0-0.8,0-3.1,0-4.7c0-1.3-0.2-2.3-0.8-3.1
		c-0.6-0.9-1.5-1.4-2.7-1.4c-1,0-2.4,0.7-3.6,1.7c0,0-0.2,0.2-0.2,0c0-0.3,0-0.8,0.1-1.1c0-0.2,0-0.4-0.2-0.5
		c-0.8,0.4-2.8,0.9-3.6,0.9c-0.5,0.1-0.7,0.6-0.1,0.9l0,0c0.5,0.1,0.9,0.3,1.3,0.6c0.2,0.2,0.2,0.4,0.2,0.7c0,1.8,0,4.5,0,5.9
		c0,0.6-0.2,0.8-0.6,0.9l0,0c-0.3,0.1-0.6,0.1-1,0.2c-0.1,0.1-0.1,0.9,0,1c0.3,0,1.6-0.1,2.7-0.1c1.5,0,2.3,0.1,2.7,0.1
		c0.2-0.2,0.2-0.9,0.1-1c-0.4,0-0.7-0.1-1.1-0.1c-0.4-0.1-0.5-0.3-0.5-0.8c0-1.2,0-3.9,0-5.6c0-0.5,0.1-0.7,0.3-0.9
		c0.5-0.4,1.4-0.8,2.2-0.8s1.3,0.2,1.6,0.5c0.4,0.4,0.7,0.9,0.8,1.5c0.1,1,0.1,3,0.1,4.7c0,0.9-0.1,1.2-0.4,1.3
		c-0.2,0.1-0.6,0.1-1.1,0.2c-0.2,0.1-0.1,0.9,0,1c0.7,0,1.5-0.1,2.7-0.1c1.4,0,2.4,0.1,2.7,0.1C69.3,34.3,69.3,33.6,69.2,33.4"/>
</g>
</svg>
