<?xml version="1.0" encoding="utf-8"?>
<!-- Generator: Adobe Illustrator 25.2.3, SVG Export Plug-In . SVG Version: 6.00 Build 0)  -->
<svg version="1.1" id="Layer_1" xmlns="http://www.w3.org/2000/svg" xmlns:xlink="http://www.w3.org/1999/xlink" x="0px" y="0px"
	 viewBox="0 0 82 48" style="enable-background:new 0 0 82 48;" xml:space="preserve">
<style type="text/css">
	.st0{fill:#999999;}
</style>
<path class="st0" d="M18.2,12.8h14.5V14H19.5v8.7h12.4v1.2H19.5v9.6h13.3v1.2H18.2C18.2,34.5,18.2,12.8,18.2,12.8z M34,12.8h1.5
	l6.8,9.6l7-9.6l9.5-12.1L43.2,23.4l8,11.2h-1.6l-7.3-10.2L35,34.6h-1.6l8.1-11.2L34,12.8L34,12.8z M51.9,14v-1.2h16.5V14h-7.6v20.6
	h-1.3V14H51.9L51.9,14z M0,12.8h1.7l22.9,34.4l-9.5-12.7L1.4,14.4L1.3,34.5H0V12.8z M68.3,33c-0.3,0-0.5-0.2-0.5-0.5S68,32,68.3,32
	s0.5,0.2,0.5,0.5C68.7,32.8,68.5,33,68.3,33L68.3,33z M69.6,31.8h0.7c0,0.4,0.3,0.6,0.7,0.6c0.5,0,0.7-0.3,0.7-0.8v-3.3h0.7v3.3
	c0,0.9-0.5,1.5-1.4,1.5C70.2,33.1,69.6,32.6,69.6,31.8L69.6,31.8z M73.4,31.7h0.7c0.1,0.4,0.5,0.7,1.1,0.7s1-0.3,1-0.7
	c0-0.4-0.3-0.6-0.9-0.7l-0.6-0.1c-0.8-0.2-1.2-0.6-1.2-1.3c0-0.8,0.7-1.4,1.7-1.4c0.9,0,1.6,0.6,1.7,1.3h-0.7
	c-0.1-0.4-0.4-0.7-1-0.7s-1,0.3-1,0.7c0,0.3,0.2,0.5,0.9,0.7l0.5,0.1c1,0.2,1.4,0.6,1.4,1.3c0,0.9-0.7,1.5-1.8,1.5
	C74.1,33.1,73.4,32.5,73.4,31.7L73.4,31.7z"/>
</svg>
