<?xml version="1.0" encoding="utf-8"?>
<!-- Generator: Adobe Illustrator 25.2.3, SVG Export Plug-In . SVG Version: 6.00 Build 0)  -->
<svg version="1.1" id="Layer_1" xmlns="http://www.w3.org/2000/svg" xmlns:xlink="http://www.w3.org/1999/xlink" x="0px" y="0px"
	 viewBox="0 0 75 48" style="enable-background:new 0 0 75 48;" xml:space="preserve">
<style type="text/css">
	.st0{opacity:0.6;fill:#999999;}
	.st1{fill-rule:evenodd;clip-rule:evenodd;fill:#999999;}
	.st2{opacity:0.6;fill-rule:evenodd;clip-rule:evenodd;fill:#999999;}
</style>
<path class="st0" d="M31.2,43.3c-0.2,0-0.4,0-0.6-0.2l-2-1.1c-0.3-0.2-0.1-0.2,0-0.3c0.4-0.1,0.5-0.2,0.9-0.4h0.1l1.5,0.9
	c0,0,0.1,0,0.2,0l5.7-3.3c0,0,0.1-0.1,0.1-0.2v-6.5c0-0.1,0-0.1-0.1-0.2l-5.7-3.3c0,0-0.1,0-0.2,0L25.4,32c0,0-0.1,0.1-0.1,0.2v6.6
	c0,0,0,0.1,0.1,0.2l1.5,0.9c0.9,0.4,1.4-0.1,1.4-0.6v-6.5c0-0.1,0.1-0.2,0.2-0.2h0.7c0.1,0,0.2,0.1,0.2,0.2v6.5
	c0,1.1-0.6,1.8-1.7,1.8c-0.3,0-0.6,0-1.3-0.3l-1.5-0.9c-0.4-0.2-0.6-0.6-0.6-1v-6.6c0-0.4,0.2-0.8,0.6-1l5.7-3.3
	c0.3-0.2,0.9-0.2,1.2,0l5.7,3.3c0.4,0.2,0.6,0.6,0.6,1v6.6c0,0.4-0.2,0.8-0.6,1l-5.7,3.3C31.5,43.3,31.3,43.3,31.2,43.3"/>
<path class="st0" d="M32.9,38.8c-2.5,0-3-1.2-3-2.1c0-0.1,0.1-0.2,0.2-0.2h0.7c0.1,0,0.1,0,0.2,0.1c0.1,0.7,0.4,1.1,1.9,1.1
	c1.2,0,1.7-0.3,1.7-0.9c0-0.4-0.1-0.6-2-0.8c-1.5-0.2-2.5-0.5-2.5-1.8c0-1.2,1-1.8,2.6-1.8c1.8,0,2.7,0.6,2.8,2v0.1h-0.1h-0.7
	c-0.1,0-0.1,0-0.2-0.1c-0.2-0.8-0.6-1-1.8-1c-1.3,0-1.5,0.5-1.5,0.8c0,0.4,0.2,0.5,1.9,0.8c1.8,0.2,2.6,0.6,2.6,1.8
	C35.7,38.1,34.7,38.8,32.9,38.8"/>
<path class="st1" d="M13.5,17.6c0-0.3-0.1-0.5-0.3-0.6l-6-3.5c-0.1,0-0.2-0.1-0.3-0.1l0,0c-0.1,0-0.2,0-0.3,0.1l-6,3.5
	C0.1,17.1,0,17.3,0,17.6V27c0,0.1,0.1,0.3,0.2,0.3c0.1,0.1,0.3,0.1,0.3,0l3.6-2.1c0.2-0.1,0.3-0.4,0.3-0.6v-4.3
	c0-0.3,0.1-0.5,0.3-0.6l1.5-0.9c0.1-0.1,0.3-0.1,0.3-0.1c0.1,0,0.3,0,0.3,0.1l1.5,0.9c0.2,0.1,0.3,0.4,0.3,0.6v4.4
	c0,0.3,0.1,0.5,0.4,0.6l3.6,2.1c0.1,0.1,0.3,0.1,0.3,0c0.1,0,0.2-0.2,0.2-0.3L13.5,17.6z M42,22.5c0,0.1,0,0.1-0.1,0.2l-2.1,1.2
	c0,0-0.1,0-0.2,0l-2.1-1.2c0,0-0.1-0.1-0.1-0.2V20c0-0.1,0-0.1,0.1-0.2l2.1-1.2c0,0,0.1,0,0.2,0l2.1,1.2c0,0,0.1,0.1,0.1,0.2V22.5z
	 M42.6,4.7c-0.1,0-0.3,0-0.3,0C42.1,4.8,42,4.9,42,5v9.3c0,0.1,0,0.2-0.1,0.2s-0.2,0-0.3,0l-1.5-0.9c-0.2-0.1-0.5-0.1-0.7,0
	l-6.1,3.5c-0.2,0.1-0.3,0.4-0.3,0.6v7c0,0.3,0.1,0.5,0.3,0.6l6.1,3.5c0.2,0.1,0.5,0.1,0.7,0l6.1-3.5c0.2-0.1,0.3-0.4,0.3-0.6V7.4
	c0-0.3-0.1-0.5-0.4-0.6L42.6,4.7z M62.7,20c0.2-0.1,0.3-0.4,0.3-0.6v-1.7c0-0.3-0.1-0.5-0.3-0.6l-6-3.5c-0.2-0.1-0.5-0.1-0.7,0
	l-6,3.5c-0.2,0.1-0.3,0.4-0.3,0.6v7c0,0.3,0.1,0.5,0.4,0.6l6,3.4c0.2,0.1,0.5,0.1,0.7,0l3.6-2c0.1,0,0.2-0.2,0.2-0.3
	s-0.1-0.3-0.2-0.3l-6.1-3.5c-0.1,0-0.2-0.2-0.2-0.3v-2.2c0-0.1,0.1-0.3,0.2-0.3l1.9-1.1c0.1-0.1,0.3-0.1,0.3,0l1.9,1.1
	c0.1,0,0.2,0.2,0.2,0.3v1.7c0,0.1,0.1,0.3,0.2,0.3s0.3,0,0.3,0L62.7,20z"/>
<path class="st2" d="M56.2,19.7L56.2,19.7l1.3,0.7l0.1,0.1v1.3c0,0,0,0.1-0.1,0.1l-1.2,0.7h-0.1L55,21.9l-0.1-0.1v-1.3
	c0,0,0-0.1,0.1-0.1L56.2,19.7z"/>
<polygon class="st0" points="29.7,17.1 23.2,13.5 16.8,17.3 16.9,24.8 23.5,28.4 29.8,24.6 "/>
</svg>
