<?xml version="1.0" encoding="utf-8"?>
<!-- Generator: Adobe Illustrator 25.4.0, SVG Export Plug-In . SVG Version: 6.00 Build 0)  -->
<svg version="1.1" id="Layer_1" xmlns="http://www.w3.org/2000/svg" xmlns:xlink="http://www.w3.org/1999/xlink" x="0px" y="0px"
	 viewBox="0 0 220 70" style="enable-background:new 0 0 220 70;" xml:space="preserve">
<style type="text/css">
	.st0{fill:#C0C0C0;stroke:#242424;stroke-width:0.1;stroke-miterlimit:10;}
	.st1{fill:#C0C0C0;}
</style>
<path class="st0" d="M43.3,26.6c-0.9-0.5-2.1-0.5-3.1,0l-7,4.2l-4.7,2.7l-7,4.2c-0.9,0.5-2.1,0.5-3.1,0L13,34.4
	c-0.9-0.5-1.5-1.6-1.5-2.7v-6.5c0-1.1,0.5-2.1,1.5-2.7l5.4-3.2c0.9-0.5,2.1-0.5,3.1,0l5.5,3.2c0.9,0.5,1.5,1.6,1.5,2.7v4.2l4.7-2.9
	v-4.2c0-1.1-0.5-2.1-1.5-2.7l-10.1-6c-0.9-0.5-2.1-0.5-3.1,0l-10.3,6c-1,0.6-1.5,1.6-1.5,2.7v12.2c0,1.1,0.5,2.1,1.5,2.7l10.3,6
	c0.9,0.5,2.1,0.5,3.1,0l7-4.2l4.7-2.9l7-4.2c0.9-0.5,2.1-0.5,3.1,0l5.5,3.2c0.9,0.5,1.5,1.6,1.5,2.7v6.5c0,1.1-0.5,2.1-1.5,2.7
	l-5.4,3.4c-0.9,0.5-2.1,0.5-3.1,0l-5.5-3.2c-0.9-0.5-1.5-1.6-1.5-2.7v-4.2l-4.7,2.9v4.2c0,1.1,0.5,2.1,1.5,2.7l10.3,6
	c0.9,0.5,2.1,0.5,3.1,0l10.3-6c0.9-0.5,1.5-1.6,1.5-2.7v-12c0-1.1-0.5-2.1-1.5-2.7L43.3,26.6z"/>
<path class="st1" d="M74.2,53.4V43.2c1.1,1.4,3.2,2.1,5.5,2.1c5.9,0,10-4.3,10-10.8S86,23.7,80.1,23.7c-2.6,0-4.8,1-5.9,2.5v-2.1
	h-5.7v29.3H74.2z M78.9,40.3c-3.2,0-5.1-2.3-5.1-5.8c0-3.5,1.9-5.8,5.1-5.8c2.9,0,5,2.3,5,5.8C84.1,38.1,81.9,40.3,78.9,40.3z"/>
<path class="st1" d="M102.6,45.3c6.3,0,10.9-4.6,10.9-10.8s-4.6-10.8-10.9-10.8c-6.3,0-10.9,4.6-10.9,10.8S96.3,45.3,102.6,45.3z
	 M102.6,40.3c-3.2,0-5.2-2.3-5.2-5.8c0-3.5,2.1-5.8,5.2-5.8c3.2,0,5.2,2.3,5.2,5.8C107.8,38,105.7,40.3,102.6,40.3z"/>
<path class="st1" d="M122.7,45V15.1H117V45H122.7z"/>
<path class="st1" d="M139.9,24.2l-4.3,13.5l-4.5-13.5h-5.8l7.5,20.6l-3.1,8.5h5.5l2.9-8.5l7.4-20.7h-5.8V24.2z"/>
<path class="st1" d="M161.7,26.2c-1.1-1.4-3.3-2.3-5.7-2.3c-6,0-9.8,4.3-9.8,10.8s3.7,10.8,9.8,10.8c2.4,0,4.6-0.9,5.7-2.4v2.7
	c0,1.9-1.2,3.3-2.9,3.3h-9.5v4.5h10.5c4.7,0,7.8-2.8,7.8-7.2V24.2h-5.8L161.7,26.2L161.7,26.2z M157,40.3c-3.1,0-5.1-2.2-5.1-5.8
	s1.9-5.8,5.1-5.8s5.1,2.3,5.1,5.8C162.1,38,160.1,40.3,157,40.3z"/>
<path class="st1" d="M181.9,45.3c6.3,0,10.9-4.6,10.9-10.8s-4.6-10.8-10.9-10.8c-6.3,0-10.9,4.6-10.9,10.8S175.6,45.3,181.9,45.3z
	 M181.9,40.3c-3.2,0-5.2-2.3-5.2-5.8c0-3.5,2.1-5.8,5.2-5.8c3.1,0,5.2,2.3,5.2,5.8C187.1,38,185,40.3,181.9,40.3z"/>
<path class="st1" d="M201.7,45V33.5c0-2.7,1.8-4.6,4.3-4.6c2.3,0,4,1.8,4,4.4V45h5.8V32c0-4.8-3.1-8.2-7.7-8.2
	c-2.8,0-5.2,1.2-6.3,3.3v-2.8h-5.8V45H201.7z"/>
</svg>
