<?xml version="1.0" encoding="utf-8"?>
<!-- Generator: Adobe Illustrator 25.4.0, SVG Export Plug-In . SVG Version: 6.00 Build 0)  -->
<svg version="1.1" id="Layer_1" xmlns="http://www.w3.org/2000/svg" xmlns:xlink="http://www.w3.org/1999/xlink" x="0px" y="0px"
	 viewBox="0 0 220 70" style="enable-background:new 0 0 220 70;" xml:space="preserve">
<style type="text/css">
	.st0{fill:#C0C0C0;stroke:#242424;stroke-width:0.1;stroke-miterlimit:10;}
</style>
<path class="st0" d="M43.3,26.6c-0.9-0.5-2.1-0.5-3.1,0l-7,4.2l-4.7,2.7l-7,4.2c-0.9,0.5-2.1,0.5-3.1,0L13,34.4
	c-0.9-0.5-1.5-1.6-1.5-2.7v-6.5c0-1.1,0.5-2.1,1.5-2.7l5.4-3.2c0.9-0.5,2.1-0.5,3.1,0l5.5,3.2c0.9,0.5,1.5,1.6,1.5,2.7v4.2l4.7-2.9
	v-4.2c0-1.1-0.5-2.1-1.5-2.7l-10.1-6c-0.9-0.5-2.1-0.5-3.1,0l-10.3,6c-1,0.6-1.5,1.6-1.5,2.7v12.2c0,1.1,0.5,2.1,1.5,2.7l10.3,6
	c0.9,0.5,2.1,0.5,3.1,0l7-4.2l4.7-2.9l7-4.2c0.9-0.5,2.1-0.5,3.1,0l5.5,3.2c0.9,0.5,1.5,1.6,1.5,2.7v6.5c0,1.1-0.5,2.1-1.5,2.7
	l-5.4,3.4c-0.9,0.5-2.1,0.5-3.1,0l-5.5-3.2c-0.9-0.5-1.5-1.6-1.5-2.7v-4.2l-4.7,2.9v4.2c0,1.1,0.5,2.1,1.5,2.7l10.3,6
	c0.9,0.5,2.1,0.5,3.1,0l10.3-6c0.9-0.5,1.5-1.6,1.5-2.7v-12c0-1.1-0.5-2.1-1.5-2.7L43.3,26.6z"/>
<path class="st0" d="M74.1,52.8V42.7c1.1,1.4,3.1,2.1,5.4,2.1c5.8,0,9.8-4.2,9.8-10.6s-3.6-10.6-9.4-10.6c-2.6,0-4.7,1-5.8,2.5V24
	h-5.6v28.8H74.1z M78.7,39.9c-3.1,0-5-2.3-5-5.7s1.9-5.7,5-5.7c2.9,0,4.9,2.3,4.9,5.7C83.8,37.7,81.7,39.9,78.7,39.9z"/>
<path class="st0" d="M102,44.8c6.2,0,10.7-4.5,10.7-10.6s-4.5-10.6-10.7-10.6s-10.7,4.5-10.7,10.6S95.8,44.8,102,44.8z M102,39.9
	c-3.1,0-5.1-2.3-5.1-5.7s2.1-5.7,5.1-5.7c3.1,0,5.1,2.3,5.1,5.7C107.1,37.6,105.1,39.9,102,39.9z"/>
<path class="st0" d="M121.8,44.5V15.1h-5.6v29.4H121.8z"/>
<path class="st0" d="M138.7,24l-4.2,13.3L130.1,24h-5.7l7.4,20.3l-3,8.4h5.4l2.9-8.4l7.3-20.4h-5.7V24z"/>
<path class="st0" d="M160.2,26c-1.1-1.4-3.2-2.3-5.6-2.3c-5.9,0-9.6,4.2-9.6,10.6s3.6,10.6,9.6,10.6c2.4,0,4.5-0.9,5.6-2.4v2.7
	c0,1.9-1.2,3.2-2.9,3.2H148v4.4h10.3c4.6,0,7.7-2.8,7.7-7.1V24h-5.7L160.2,26L160.2,26z M155.5,39.9c-3,0-5-2.2-5-5.7s1.9-5.7,5-5.7
	s5,2.3,5,5.7S158.6,39.9,155.5,39.9z"/>
<path class="st0" d="M180,44.8c6.2,0,10.7-4.5,10.7-10.6s-4.5-10.6-10.7-10.6s-10.7,4.5-10.7,10.6S173.8,44.8,180,44.8z M180,39.9
	c-3.1,0-5.1-2.3-5.1-5.7s2.1-5.7,5.1-5.7s5.1,2.3,5.1,5.7C185.1,37.6,183.1,39.9,180,39.9z"/>
<path class="st0" d="M199.5,44.5V33.2c0-2.7,1.8-4.5,4.2-4.5c2.3,0,3.9,1.8,3.9,4.3v11.5h5.7V31.7c0-4.7-3-8.1-7.6-8.1
	c-2.8,0-5.1,1.2-6.2,3.2V24h-5.7v20.5H199.5z"/>
</svg>
