<?xml version="1.0" encoding="utf-8"?>
<!-- Generator: Adobe Illustrator 25.2.3, SVG Export Plug-In . SVG Version: 6.00 Build 0)  -->
<svg version="1.1" id="Layer_1" xmlns="http://www.w3.org/2000/svg" xmlns:xlink="http://www.w3.org/1999/xlink" x="0px" y="0px"
	 viewBox="0 0 55 48" style="enable-background:new 0 0 55 48;" xml:space="preserve">
<style type="text/css">
	.st0{fill:#999999;}
</style>
<path class="st0" d="M34.7,17.9c-0.4-0.1-0.8-0.3-1.3-0.4c0.1-0.3,0.1-0.6,0.2-0.9c1-4.6,0.3-8.4-1.8-9.6c-2-1.2-5.4,0.1-8.8,3
	c-0.3,0.3-0.7,0.6-1,0.9c-0.2-0.2-0.4-0.4-0.6-0.6c-3.5-3.1-7.1-4.5-9.2-3.2c-2,1.2-2.6,4.7-1.8,9.1c0.1,0.4,0.2,0.9,0.3,1.3
	c-0.5,0.1-1,0.3-1.4,0.5c-4.2,1.3-6.8,3.6-6.8,6s2.8,4.9,7.2,6.3c0.4,0.1,0.7,0.2,1.1,0.3c-0.1,0.5-0.2,0.9-0.3,1.4
	c-0.8,4.3-0.2,7.7,1.9,8.9c2.1,1.2,5.6,0,9.1-3c0.3-0.2,0.5-0.5,0.8-0.8c0.3,0.3,0.7,0.7,1.1,1c3.3,2.9,6.6,4,8.6,2.8
	c2.1-1.2,2.8-4.9,1.9-9.4c-0.1-0.3-0.1-0.7-0.2-1c0.2-0.1,0.5-0.1,0.7-0.2c4.5-1.5,7.4-3.9,7.4-6.4C41.6,21.6,38.9,19.3,34.7,17.9z
	 M24.2,11.4C27,8.7,29.7,7.7,31,8.5s1.8,3.8,1,7.8c-0.1,0.3-0.1,0.5-0.2,0.8c-1.6-0.4-3.4-0.7-5.2-0.8c-1.1-1.5-2.2-2.9-3.3-4.1
	C23.6,11.9,23.9,11.6,24.2,11.4z M14.1,25.9c0.4,0.7,0.7,1.4,1.1,2c0.3,0.8,0.7,1.4,1.2,2.1c-1.3-0.1-2.5-0.3-3.6-0.6
	C13.1,28.3,13.6,27.1,14.1,25.9z M14,22c-0.5-1.2-0.9-2.3-1.2-3.4c1.1-0.3,2.3-0.5,3.6-0.6c-0.5,0.7-0.9,1.3-1.3,2
	C14.7,20.7,14.3,21.3,14,22z M14.9,23.9c0.5-1.1,1.1-2.1,1.7-3.2c0.6-1,1.2-2,1.9-3c1.2-0.1,2.4-0.1,3.6-0.1c1.2,0,2.4,0,3.6,0.1
	c0.7,1,1.3,2,1.9,3c0.6,1,1.2,2.1,1.7,3.1c-0.6,1.2-1.2,2.3-1.8,3.3s-1.2,2-1.9,3c-1.2,0.1-2.4,0.1-3.6,0.1s-2.4,0-3.5-0.1
	c-0.7-1-1.3-2-1.9-3C16,26.1,15.4,25,14.9,23.9z M28.9,27.9c0.5-0.6,0.8-1.3,1.2-2c0.5,1.2,1,2.3,1.3,3.4c-1.1,0.3-2.4,0.5-3.7,0.6
	C28.1,29.2,28.5,28.6,28.9,27.9z M29,20c-0.4-0.7-0.8-1.3-1.2-2c1.2,0.2,2.4,0.4,3.6,0.6c-0.3,1.1-0.8,2.2-1.3,3.4
	C29.7,21.3,29.3,20.7,29,20z M22.1,13.3c0.8,0.8,1.5,1.8,2.3,2.8c-1.5-0.1-3.1-0.1-4.6,0C20.5,15.1,21.3,14.1,22.1,13.3z M13.1,8.5
	c1.3-0.8,4.2,0.3,7.3,3c0.2,0.2,0.4,0.4,0.6,0.5c-1.1,1.2-2.3,2.6-3.3,4.1c-1.8,0.2-3.6,0.4-5.2,0.8c-0.3-0.3-0.4-0.7-0.4-1.1
	C11.4,12,11.9,9.2,13.1,8.5z M11.1,29c-0.3-0.1-0.6-0.2-0.9-0.3c-1.9-0.7-3.5-1.5-4.6-2.4c-1-0.8-1.5-1.7-1.5-2.3
	c0-1.4,2.1-3.2,5.7-4.5c0.4-0.2,0.9-0.3,1.3-0.4c0.5,1.6,1.1,3.3,1.9,4.9C12.2,25.7,11.6,27.4,11.1,29z M20.4,36.7
	c-1.7,1.3-3.2,2.2-4.6,2.7c-1.2,0.4-2.2,0.4-2.7,0.1c-1.2-0.7-1.7-3.5-1-7.2c0.1-0.4,0.2-0.9,0.3-1.3c1.6,0.4,3.4,0.6,5.3,0.8
	c1.1,1.5,2.2,2.9,3.4,4.2C20.9,36.2,20.6,36.5,20.4,36.7z M22.1,34.7c-0.8-0.9-1.6-1.8-2.4-2.8c0.7,0,1.5,0,2.3,0s1.6,0,2.4-0.1
	C23.6,33,22.9,33.9,22.1,34.7z M32.3,37.1c-0.2,1.3-0.7,2.1-1.3,2.4c-1.2,0.7-3.9-0.2-6.7-2.7c-0.3-0.3-0.7-0.6-1-0.9
	c1.1-1.2,2.2-2.6,3.3-4.2c1.9-0.2,3.7-0.4,5.3-0.8c0,0.4,0.1,0.7,0.2,1C32.5,33.9,32.5,35.7,32.3,37.1z M33.7,28.7
	c-0.2,0.1-0.4,0.1-0.7,0.2c-0.5-1.6-1.2-3.2-2-5c0.8-1.7,1.4-3.3,1.9-4.9c0.4,0.1,0.8,0.2,1.2,0.4c3.6,1.2,5.8,3.1,5.8,4.5
	C40,25.5,37.6,27.4,33.7,28.7z"/>
<path class="st0" d="M22,20.5c1.9,0,3.5,1.6,3.5,3.5s-1.6,3.5-3.5,3.5s-3.5-1.6-3.5-3.5C18.5,22,20.1,20.5,22,20.5"/>
</svg>
